<svg xmlns="http://www.w3.org/2000/svg" viewBox="0 0 1200 540" role="img" aria-label="World map">
  <defs>
    <linearGradient id="ocean" x1="0" y1="0" x2="0" y2="1">
      <stop offset="0" stop-color="#070a0f"/>
      <stop offset="1" stop-color="#05070b"/>
    </linearGradient>
    <filter id="glow" x="-50%" y="-50%" width="200%" height="200%">
      <feGaussianBlur stdDeviation="3" result="b"/>
      <feMerge>
        <feMergeNode in="b"/>
        <feMergeNode in="SourceGraphic"/>
      </feMerge>
    </filter>
  </defs>

  <rect width="1200" height="540" fill="url(#ocean)"/>
  <g fill="#0a1622" stroke="#00d4ff" stroke-opacity="0.18" stroke-width="2">
    <!-- Very stylized continent silhouettes (for UI display, not geographic accuracy) -->
    <path d="M120,165 C170,120 280,105 350,130 C415,152 430,208 365,240 C310,267 270,310 255,355 C238,410 165,412 140,360 C120,320 90,285 85,240 C80,210 95,185 120,165 Z"/>
    <path d="M315,305 C370,285 450,295 490,335 C525,370 508,430 455,465 C410,493 350,490 320,450 C292,412 285,332 315,305 Z"/>
    <path d="M520,155 C585,105 700,98 770,130 C835,160 860,215 820,250 C780,285 705,305 655,335 C605,365 575,400 540,395 C505,390 485,350 495,305 C505,255 480,195 520,155 Z"/>
    <path d="M760,310 C820,280 910,285 975,320 C1045,357 1110,375 1120,420 C1130,470 1080,505 1010,510 C945,515 905,480 860,450 C815,420 745,400 720,370 C695,340 715,330 760,310 Z"/>
    <path d="M900,150 C935,130 990,135 1015,160 C1040,185 1020,215 980,225 C940,235 900,225 888,200 C878,180 878,165 900,150 Z"/>
    <path d="M980,430 C1040,410 1100,420 1120,455 C1140,490 1100,520 1040,525 C990,530 955,505 955,480 C955,455 960,440 980,430 Z"/>
  </g>

  <g font-family="Inter, system-ui, -apple-system, Segoe UI, Roboto, Arial" font-size="16" fill="#9feaff" opacity="0.75">
    <text x="210" y="155">NORTH AMERICA</text>
    <text x="360" y="455">SOUTH AMERICA</text>
    <text x="610" y="145">EUROPE / AFRICA</text>
    <text x="860" y="315">ASIA</text>
    <text x="1005" y="520">AUSTRALIA</text>
  </g>

  <g font-family="Inter, system-ui, -apple-system, Segoe UI, Roboto, Arial" font-size="12" fill="#e9f8ff" opacity="0.72" filter="url(#glow)">
    <text x="250" y="210">USA</text>
    <text x="310" y="250">MEX</text>
    <text x="390" y="420">BRA</text>
    <text x="610" y="205">FRA</text>
    <text x="640" y="185">UK</text>
    <text x="700" y="250">NGA</text>
    <text x="835" y="240">RUS</text>
    <text x="860" y="300">IND</text>
    <text x="950" y="285">CHN</text>
    <text x="1045" y="220">JPN</text>
    <text x="885" y="475">ZAF</text>
  </g>
</svg>
